<svg xmlns="http://www.w3.org/2000/svg" version="1.1" xmlns:xlink="http://www.w3.org/1999/xlink" xmlns:svgjs="http://svgjs.dev/svgjs" width="1440" height="800" preserveAspectRatio="none" viewBox="0 0 1440 800"><g mask="url(&quot;#SvgjsMask1066&quot;)" fill="none"><rect width="1440" height="800" x="0" y="0" fill="rgba(255, 206, 179, 1)"></rect><path d="M7 800L807 0L1156.5 0L356.5 800z" fill="url(&quot;#SvgjsLinearGradient1067&quot;)"></path><path d="M492.20000000000005 800L1292.2 0L1575.7 0L775.7 800z" fill="url(&quot;#SvgjsLinearGradient1067&quot;)"></path><path d="M1385 800L585 0L37.5 0L837.5 800z" fill="url(&quot;#SvgjsLinearGradient1068&quot;)"></path><path d="M880.8 800L80.79999999999995 0L-183.20000000000005 0L616.8 800z" fill="url(&quot;#SvgjsLinearGradient1068&quot;)"></path><path d="M988.183843946575 800L1440 348.183843946575L1440 800z" fill="url(&quot;#SvgjsLinearGradient1067&quot;)"></path><path d="M0 800L451.816156053425 800L 0 348.183843946575z" fill="url(&quot;#SvgjsLinearGradient1068&quot;)"></path></g><defs><mask id="SvgjsMask1066"><rect width="1440" height="800" fill="#ffffff"></rect></mask><linearGradient x1="0%" y1="100%" x2="100%" y2="0%" id="SvgjsLinearGradient1067"><stop stop-color="rgba(185, 15, 15, 0.45)" offset="0"></stop><stop stop-opacity="0" stop-color="rgba(185, 15, 15, 0.45)" offset="0.66"></stop></linearGradient><linearGradient x1="100%" y1="100%" x2="0%" y2="0%" id="SvgjsLinearGradient1068"><stop stop-color="rgba(185, 15, 15, 0.45)" offset="0"></stop><stop stop-opacity="0" stop-color="rgba(185, 15, 15, 0.45)" offset="0.66"></stop></linearGradient></defs></svg>